STARTFONT 2.1
FONT -cannam-garamond-medium-i-normal--14-140-75-75-p-90-iso8859-2
SIZE 12 75 75
FONTBOUNDINGBOX 19 17 -2 -4
STARTPROPERTIES 17
POINT_SIZE 140
PIXEL_SIZE 14
RESOLUTION_X 75
RESOLUTION_Y 75
FONT_ASCENT 14
FONT_DESCENT 4
AVERAGE_WIDTH 90
SPACING "p"
FOUNDRY "cannam"
FAMILY_NAME "garamond"
WEIGHT_NAME "medium"
SLANT "i"
SETWIDTH_NAME "normal"
ADD_STYLE_NAME ""
CHARSET_REGISTRY "iso8859"
CHARSET_ENCODING "2"
_XMBDFED_INFO "Edited with xmbdfed 1.5."
ENDPROPERTIES
CHARS 190
STARTCHAR char32
ENCODING 32
SWIDTH 320 0
DWIDTH 4 0
BBX 0 0 0 0
BITMAP
ENDCHAR
STARTCHAR char33
ENCODING 33
SWIDTH 560 0
DWIDTH 7 0
BBX 4 11 2 0
BITMAP
20
30
20
20
40
40
40
00
00
80
80
ENDCHAR
STARTCHAR char34
ENCODING 34
SWIDTH 480 0
DWIDTH 6 0
BBX 5 4 1 7
BITMAP
48
48
90
90
ENDCHAR
STARTCHAR char35
ENCODING 35
SWIDTH 960 0
DWIDTH 12 0
BBX 12 12 0 -3
BITMAP
0440
0440
0440
0880
7FF0
0880
1100
FFE0
1100
2200
2200
2200
ENDCHAR
STARTCHAR char115
ENCODING 36
SWIDTH 560 0
DWIDTH 7 0
BBX 7 11 0 -2
BITMAP
10
10
3C
54
70
3C
16
96
7C
10
10
ENDCHAR
STARTCHAR char47
ENCODING 37
SWIDTH 800 0
DWIDTH 10 0
BBX 9 12 1 -1
BITMAP
0100
6200
9200
9400
6400
0800
0800
1300
1480
2480
2300
4000
ENDCHAR
STARTCHAR char38
ENCODING 38
SWIDTH 800 0
DWIDTH 10 0
BBX 10 11 1 0
BITMAP
3000
4800
4800
2800
3380
5100
4900
8E00
8600
CB00
70C0
ENDCHAR
STARTCHAR char39
ENCODING 39
SWIDTH 320 0
DWIDTH 4 0
BBX 2 5 2 5
BITMAP
80
C0
40
40
80
ENDCHAR
STARTCHAR char41
ENCODING 40
SWIDTH 560 0
DWIDTH 7 0
BBX 5 14 2 -1
BITMAP
08
10
20
60
40
C0
80
80
80
80
80
C0
40
20
ENDCHAR
STARTCHAR char41
ENCODING 41
SWIDTH 480 0
DWIDTH 6 0
BBX 5 14 1 -1
BITMAP
20
10
18
08
08
08
08
08
18
10
30
20
40
80
ENDCHAR
STARTCHAR char42
ENCODING 42
SWIDTH 560 0
DWIDTH 7 0
BBX 5 5 2 7
BITMAP
20
A8
50
A8
20
ENDCHAR
STARTCHAR char43
ENCODING 43
SWIDTH 640 0
DWIDTH 8 0
BBX 7 7 1 0
BITMAP
10
10
10
FE
10
10
10
ENDCHAR
STARTCHAR char44
ENCODING 44
SWIDTH 400 0
DWIDTH 5 0
BBX 2 5 2 -2
BITMAP
80
C0
40
40
80
ENDCHAR
STARTCHAR char45
ENCODING 45
SWIDTH 640 0
DWIDTH 8 0
BBX 7 1 1 3
BITMAP
FE
ENDCHAR
STARTCHAR char46
ENCODING 46
SWIDTH 480 0
DWIDTH 6 0
BBX 2 2 2 0
BITMAP
C0
C0
ENDCHAR
STARTCHAR char47
ENCODING 47
SWIDTH 560 0
DWIDTH 7 0
BBX 6 12 1 -2
BITMAP
04
04
08
08
10
10
20
20
40
40
80
80
ENDCHAR
STARTCHAR char48
ENCODING 48
SWIDTH 800 0
DWIDTH 10 0
BBX 8 7 1 0
BITMAP
3E
63
41
81
82
C6
7C
ENDCHAR
STARTCHAR char49
ENCODING 49
SWIDTH 400 0
DWIDTH 5 0
BBX 4 7 1 0
BITMAP
70
20
20
40
40
40
E0
ENDCHAR
STARTCHAR char50
ENCODING 50
SWIDTH 640 0
DWIDTH 8 0
BBX 7 7 1 0
BITMAP
30
58
18
10
20
42
FC
ENDCHAR
STARTCHAR char51
ENCODING 51
SWIDTH 480 0
DWIDTH 6 0
BBX 6 11 0 -4
BITMAP
18
2C
0C
18
20
78
0C
0C
08
30
C0
ENDCHAR
STARTCHAR char52
ENCODING 52
SWIDTH 720 0
DWIDTH 9 0
BBX 7 10 1 -3
BITMAP
02
06
0E
14
24
44
FE
08
08
08
ENDCHAR
STARTCHAR char53
ENCODING 53
SWIDTH 480 0
DWIDTH 6 0
BBX 6 11 0 -4
BITMAP
1C
10
20
30
18
08
08
10
30
20
C0
ENDCHAR
STARTCHAR char54
ENCODING 54
SWIDTH 560 0
DWIDTH 7 0
BBX 6 11 1 0
BITMAP
04
08
10
30
60
40
F0
88
88
C8
70
ENDCHAR
STARTCHAR char55
ENCODING 55
SWIDTH 640 0
DWIDTH 8 0
BBX 6 11 1 -4
BITMAP
FC
98
08
10
10
20
20
40
40
80
80
ENDCHAR
STARTCHAR char56
ENCODING 56
SWIDTH 560 0
DWIDTH 7 0
BBX 7 11 1 0
BITMAP
1C
26
42
64
38
38
4C
84
84
C8
70
ENDCHAR
STARTCHAR char54
ENCODING 57
SWIDTH 640 0
DWIDTH 8 0
BBX 6 11 1 -4
BITMAP
38
4C
84
C4
7C
08
18
30
20
40
80
ENDCHAR
STARTCHAR char58
ENCODING 58
SWIDTH 480 0
DWIDTH 6 0
BBX 2 6 2 1
BITMAP
C0
C0
00
00
C0
C0
ENDCHAR
STARTCHAR char58
ENCODING 59
SWIDTH 320 0
DWIDTH 4 0
BBX 2 9 2 -2
BITMAP
40
40
00
00
40
C0
40
40
80
ENDCHAR
STARTCHAR char60
ENCODING 60
SWIDTH 720 0
DWIDTH 9 0
BBX 8 7 1 0
BITMAP
03
0C
30
C0
30
0C
03
ENDCHAR
STARTCHAR char61
ENCODING 61
SWIDTH 640 0
DWIDTH 8 0
BBX 7 4 1 2
BITMAP
FE
00
00
FE
ENDCHAR
STARTCHAR char62
ENCODING 62
SWIDTH 720 0
DWIDTH 9 0
BBX 8 7 1 0
BITMAP
C0
30
0C
03
0C
30
C0
ENDCHAR
STARTCHAR char63
ENCODING 63
SWIDTH 560 0
DWIDTH 7 0
BBX 6 12 1 0
BITMAP
40
70
08
0C
08
70
40
40
00
00
80
80
ENDCHAR
STARTCHAR char111
ENCODING 64
SWIDTH 1040 0
DWIDTH 13 0
BBX 12 12 1 -2
BITMAP
0F00
30C0
6060
4FA0
9990
9090
9090
99B0
4EE0
6000
3000
0FC0
ENDCHAR
STARTCHAR char32
ENCODING 65
SWIDTH 880 0
DWIDTH 11 0
BBX 11 12 0 0
BITMAP
0200
0200
0600
0700
0900
0900
1180
1F80
1080
2040
20C0
F1E0
ENDCHAR
STARTCHAR char33
ENCODING 66
SWIDTH 640 0
DWIDTH 8 0
BBX 8 12 0 0
BITMAP
3E
13
11
11
22
3C
22
21
41
41
43
FE
ENDCHAR
STARTCHAR char34
ENCODING 67
SWIDTH 800 0
DWIDTH 10 0
BBX 9 12 1 0
BITMAP
0F00
3080
6000
4000
8000
8000
8000
8000
8000
C000
6100
1E00
ENDCHAR
STARTCHAR char35
ENCODING 68
SWIDTH 800 0
DWIDTH 10 0
BBX 10 12 0 0
BITMAP
3E00
1180
1080
1040
2040
2040
2040
2040
4080
4180
4300
FC00
ENDCHAR
STARTCHAR char36
ENCODING 69
SWIDTH 640 0
DWIDTH 8 0
BBX 9 12 0 0
BITMAP
3F00
1080
1000
1000
2000
3F00
2000
2000
4000
4000
4100
FE00
ENDCHAR
STARTCHAR char102
ENCODING 70
SWIDTH 640 0
DWIDTH 8 0
BBX 10 12 0 0
BITMAP
1F80
0840
0800
0800
1000
1F80
1000
1000
2000
2000
2000
F000
ENDCHAR
STARTCHAR char34
ENCODING 71
SWIDTH 880 0
DWIDTH 11 0
BBX 10 12 1 0
BITMAP
0F00
3080
6000
4000
8000
8000
83C0
8180
8100
C100
6100
3E00
ENDCHAR
STARTCHAR char104
ENCODING 72
SWIDTH 880 0
DWIDTH 11 0
BBX 12 12 0 0
BITMAP
3870
1020
1020
1020
2040
3FC0
2040
2040
4080
4080
4080
E1C0
ENDCHAR
STARTCHAR char105
ENCODING 73
SWIDTH 400 0
DWIDTH 5 0
BBX 7 12 0 0
BITMAP
1E
08
08
08
10
10
10
10
20
20
20
F0
ENDCHAR
STARTCHAR char106
ENCODING 74
SWIDTH 320 0
DWIDTH 4 0
BBX 7 16 -1 -4
BITMAP
0E
04
04
04
08
08
08
08
10
10
10
20
20
40
40
80
ENDCHAR
STARTCHAR char107
ENCODING 75
SWIDTH 800 0
DWIDTH 10 0
BBX 11 12 0 0
BITMAP
39E0
1180
1200
1400
2800
3000
3800
2C00
4C00
4600
4300
E3C0
ENDCHAR
STARTCHAR char108
ENCODING 76
SWIDTH 640 0
DWIDTH 8 0
BBX 8 12 0 0
BITMAP
38
10
10
10
20
20
20
20
40
40
41
FE
ENDCHAR
STARTCHAR char109
ENCODING 77
SWIDTH 1120 0
DWIDTH 14 0
BBX 15 12 0 0
BITMAP
3006
1804
180C
181C
2C28
2C28
2448
26C8
4710
4310
4210
E238
ENDCHAR
STARTCHAR char110
ENCODING 78
SWIDTH 1120 0
DWIDTH 14 0
BBX 15 12 0 0
BITMAP
300E
1804
1C04
1604
2608
2308
2188
20C8
40D0
4070
4030
E010
ENDCHAR
STARTCHAR char111
ENCODING 79
SWIDTH 1040 0
DWIDTH 13 0
BBX 12 12 1 0
BITMAP
0780
1860
2030
4010
C010
8010
8010
8030
8020
C040
6180
1E00
ENDCHAR
STARTCHAR char112
ENCODING 80
SWIDTH 720 0
DWIDTH 9 0
BBX 10 12 0 0
BITMAP
3F80
10C0
1040
1040
2080
2100
2600
2000
4000
4000
4000
E000
ENDCHAR
STARTCHAR char111
ENCODING 81
SWIDTH 1040 0
DWIDTH 13 0
BBX 18 16 -1 -4
BITMAP
00E000
031800
040C00
040C00
080C00
080C00
0C8800
071800
001000
002000
004000
7C8000
C70000
8DC000
703040
000F80
ENDCHAR
STARTCHAR char112
ENCODING 82
SWIDTH 880 0
DWIDTH 11 0
BBX 12 14 0 -2
BITMAP
1F80
08C0
0840
0840
1040
1080
1F00
1200
2200
2100
2180
F080
0040
0030
ENDCHAR
STARTCHAR char115
ENCODING 83
SWIDTH 720 0
DWIDTH 9 0
BBX 9 12 0 0
BITMAP
0780
0880
1000
1800
1800
0E00
0300
0180
0180
0100
8600
7C00
ENDCHAR
STARTCHAR char116
ENCODING 84
SWIDTH 720 0
DWIDTH 9 0
BBX 11 12 0 0
BITMAP
FFE0
8420
0400
0400
0800
0800
0800
0800
1000
1000
1000
7800
ENDCHAR
STARTCHAR char117
ENCODING 85
SWIDTH 880 0
DWIDTH 11 0
BBX 11 12 1 0
BITMAP
E0E0
4040
4040
4040
8080
8080
8080
8080
8100
8200
C200
7C00
ENDCHAR
STARTCHAR char109
ENCODING 86
SWIDTH 800 0
DWIDTH 10 0
BBX 13 12 0 0
BITMAP
F038
6010
2020
2040
3040
3080
1100
1100
1E00
1C00
0C00
0800
ENDCHAR
STARTCHAR char109
ENCODING 87
SWIDTH 1120 0
DWIDTH 14 0
BBX 17 12 0 0
BITMAP
EF3B80
661100
222200
322400
334800
338800
111000
1BA000
1DE000
1DC000
088000
088000
ENDCHAR
STARTCHAR char109
ENCODING 88
SWIDTH 880 0
DWIDTH 11 0
BBX 13 12 0 0
BITMAP
3E78
0C20
0440
0680
0680
0300
0600
0B00
0B00
1100
2180
F3E0
ENDCHAR
STARTCHAR char121
ENCODING 89
SWIDTH 640 0
DWIDTH 8 0
BBX 11 12 0 0
BITMAP
F1E0
2080
3100
3100
1200
1400
1C00
0800
1800
1000
1000
7800
ENDCHAR
STARTCHAR char122
ENCODING 90
SWIDTH 880 0
DWIDTH 11 0
BBX 13 12 0 0
BITMAP
0FF8
1030
0060
00C0
0180
0300
0600
0C00
1800
3000
6040
FFC0
ENDCHAR
STARTCHAR char91
ENCODING 91
SWIDTH 560 0
DWIDTH 7 0
BBX 5 14 2 -1
BITMAP
38
20
20
20
20
40
40
40
40
80
80
80
80
E0
ENDCHAR
STARTCHAR char47
ENCODING 92
SWIDTH 560 0
DWIDTH 7 0
BBX 6 12 1 -2
BITMAP
80
80
40
40
20
20
10
10
08
08
04
04
ENDCHAR
STARTCHAR char93
ENCODING 93
SWIDTH 560 0
DWIDTH 7 0
BBX 5 14 0 -1
BITMAP
38
08
08
08
08
10
10
10
10
20
20
20
20
E0
ENDCHAR
STARTCHAR char94
ENCODING 94
SWIDTH 640 0
DWIDTH 8 0
BBX 7 4 1 8
BITMAP
10
28
44
82
ENDCHAR
STARTCHAR char95
ENCODING 95
SWIDTH 800 0
DWIDTH 10 0
BBX 11 1 0 -1
BITMAP
FFE0
ENDCHAR
STARTCHAR char96
ENCODING 96
SWIDTH 320 0
DWIDTH 4 0
BBX 2 5 2 5
BITMAP
40
80
80
C0
40
ENDCHAR
STARTCHAR char97
ENCODING 97
SWIDTH 640 0
DWIDTH 8 0
BBX 7 7 1 0
BITMAP
1C
24
44
C8
88
DA
6C
ENDCHAR
STARTCHAR char98
ENCODING 98
SWIDTH 560 0
DWIDTH 7 0
BBX 6 13 1 0
BITMAP
18
30
10
10
20
20
38
4C
44
44
88
D0
60
ENDCHAR
STARTCHAR char99
ENCODING 99
SWIDTH 560 0
DWIDTH 7 0
BBX 6 7 1 0
BITMAP
38
4C
40
80
80
C8
70
ENDCHAR
STARTCHAR char100
ENCODING 100
SWIDTH 640 0
DWIDTH 8 0
BBX 8 13 1 0
BITMAP
01
03
01
02
02
02
1C
24
44
C8
88
DA
6C
ENDCHAR
STARTCHAR char101
ENCODING 101
SWIDTH 560 0
DWIDTH 7 0
BBX 6 7 1 0
BITMAP
38
4C
48
F0
80
C8
70
ENDCHAR
STARTCHAR char102
ENCODING 102
SWIDTH 400 0
DWIDTH 5 0
BBX 8 16 0 -3
BITMAP
03
05
08
08
08
10
7C
10
20
20
20
20
40
40
C0
80
ENDCHAR
STARTCHAR char103
ENCODING 103
SWIDTH 560 0
DWIDTH 7 0
BBX 6 10 1 -3
BITMAP
3C
48
88
90
60
40
70
8C
84
78
ENDCHAR
STARTCHAR char104
ENCODING 104
SWIDTH 640 0
DWIDTH 8 0
BBX 7 13 1 0
BITMAP
18
30
10
10
20
20
2C
72
62
42
C4
84
98
ENDCHAR
STARTCHAR char105
ENCODING 105
SWIDTH 400 0
DWIDTH 5 0
BBX 4 11 1 0
BITMAP
10
10
00
00
30
E0
20
20
40
40
60
ENDCHAR
STARTCHAR char106
ENCODING 106
SWIDTH 400 0
DWIDTH 5 0
BBX 5 14 0 -3
BITMAP
08
08
00
00
18
70
10
10
20
20
20
40
40
80
ENDCHAR
STARTCHAR char107
ENCODING 107
SWIDTH 640 0
DWIDTH 8 0
BBX 7 13 1 0
BITMAP
18
30
10
10
20
20
38
64
44
78
D0
9A
8C
ENDCHAR
STARTCHAR char108
ENCODING 108
SWIDTH 400 0
DWIDTH 5 0
BBX 5 13 1 0
BITMAP
18
30
10
10
20
20
20
40
40
40
80
A0
C0
ENDCHAR
STARTCHAR char109
ENCODING 109
SWIDTH 880 0
DWIDTH 11 0
BBX 10 7 1 0
BITMAP
6CC0
3540
6640
4440
4C80
88C0
8980
ENDCHAR
STARTCHAR char110
ENCODING 110
SWIDTH 640 0
DWIDTH 8 0
BBX 7 7 1 0
BITMAP
4C
D2
62
42
C4
86
8C
ENDCHAR
STARTCHAR char111
ENCODING 111
SWIDTH 560 0
DWIDTH 7 0
BBX 6 7 1 0
BITMAP
38
4C
84
84
84
C8
70
ENDCHAR
STARTCHAR char112
ENCODING 112
SWIDTH 560 0
DWIDTH 7 0
BBX 9 12 -2 -4
BITMAP
0400
0700
1D80
0880
0880
1100
1900
1E00
2000
2000
2000
F000
ENDCHAR
STARTCHAR char113
ENCODING 113
SWIDTH 640 0
DWIDTH 8 0
BBX 7 11 1 -4
BITMAP
1A
2C
44
44
88
D8
68
10
10
10
78
ENDCHAR
STARTCHAR char114
ENCODING 114
SWIDTH 560 0
DWIDTH 7 0
BBX 6 7 1 0
BITMAP
6C
B4
20
40
40
40
80
ENDCHAR
STARTCHAR char115
ENCODING 115
SWIDTH 400 0
DWIDTH 5 0
BBX 5 7 0 0
BITMAP
38
60
20
10
08
18
F0
ENDCHAR
STARTCHAR char116
ENCODING 116
SWIDTH 400 0
DWIDTH 5 0
BBX 5 9 1 0
BITMAP
20
20
F8
40
40
40
80
A0
C0
ENDCHAR
STARTCHAR char117
ENCODING 117
SWIDTH 640 0
DWIDTH 8 0
BBX 7 7 1 0
BITMAP
22
C2
44
44
8C
96
64
ENDCHAR
STARTCHAR char118
ENCODING 118
SWIDTH 640 0
DWIDTH 8 0
BBX 8 7 0 0
BITMAP
79
D1
11
22
22
34
18
ENDCHAR
STARTCHAR char119
ENCODING 119
SWIDTH 960 0
DWIDTH 12 0
BBX 12 7 0 0
BITMAP
7990
D290
1310
2320
2220
3740
1980
ENDCHAR
STARTCHAR char120
ENCODING 120
SWIDTH 720 0
DWIDTH 9 0
BBX 9 7 0 0
BITMAP
6180
5280
1C00
0800
1C00
2400
C300
ENDCHAR
STARTCHAR char121
ENCODING 121
SWIDTH 560 0
DWIDTH 7 0
BBX 8 11 -1 -4
BITMAP
63
11
19
0A
0E
04
0C
08
10
E0
C0
ENDCHAR
STARTCHAR char122
ENCODING 122
SWIDTH 640 0
DWIDTH 8 0
BBX 11 10 1 -3
BITMAP
3E00
4C00
0800
1000
2000
6000
D000
0800
0620
03C0
ENDCHAR
STARTCHAR char123
ENCODING 123
SWIDTH 400 0
DWIDTH 5 0
BBX 4 15 1 -2
BITMAP
30
40
40
40
20
20
10
E0
10
20
20
40
40
40
30
ENDCHAR
STARTCHAR char124
ENCODING 124
SWIDTH 400 0
DWIDTH 5 0
BBX 1 13 3 0
BITMAP
80
80
80
80
80
80
80
80
80
80
80
80
80
ENDCHAR
STARTCHAR char123
ENCODING 125
SWIDTH 400 0
DWIDTH 5 0
BBX 4 15 1 -2
BITMAP
C0
20
20
20
40
40
80
70
80
40
40
20
20
20
C0
ENDCHAR
STARTCHAR char126
ENCODING 126
SWIDTH 640 0
DWIDTH 8 0
BBX 7 3 1 9
BITMAP
62
92
8C
ENDCHAR
STARTCHAR char32
ENCODING 161
SWIDTH 880 0
DWIDTH 11 0
BBX 12 15 0 -3
BITMAP
0200
0200
0600
0700
0900
0900
1180
1F80
1080
2080
20C0
F1E0
0040
0040
0030
ENDCHAR
STARTCHAR char34
ENCODING 162
SWIDTH 0 0
DWIDTH 0 0
BBX 5 2 2 10
BITMAP
88
70
ENDCHAR
STARTCHAR char108
ENCODING 163
SWIDTH 640 0
DWIDTH 8 0
BBX 9 12 -1 0
BITMAP
1C00
0800
0800
0800
1200
1C00
7000
9000
2000
2000
2080
7F00
ENDCHAR
STARTCHAR char164
ENCODING 164
SWIDTH 720 0
DWIDTH 9 0
BBX 9 9 1 -1
BITMAP
8080
5D00
2200
4100
4100
4100
2200
5D00
8080
ENDCHAR
STARTCHAR char108
ENCODING 165
SWIDTH 640 0
DWIDTH 8 0
BBX 8 13 0 0
BITMAP
02
3B
11
12
10
20
20
20
20
40
40
41
FE
ENDCHAR
STARTCHAR char115
ENCODING 166
SWIDTH 720 0
DWIDTH 9 0
BBX 10 13 0 0
BITMAP
00C0
0100
0000
0780
0880
1800
1800
0E00
0300
0100
0100
8300
7E00
ENDCHAR
STARTCHAR char167
ENCODING 167
SWIDTH 480 0
DWIDTH 6 0
BBX 4 12 2 -1
BITMAP
60
90
80
40
60
90
90
60
20
10
90
60
ENDCHAR
STARTCHAR char168
ENCODING 168
SWIDTH 0 0
DWIDTH 0 0
BBX 5 2 2 10
BITMAP
88
88
ENDCHAR
STARTCHAR char115
ENCODING 169
SWIDTH 720 0
DWIDTH 9 0
BBX 9 13 0 0
BITMAP
0280
0100
0000
0780
0880
1800
1800
0E00
0300
0100
0100
8300
7E00
ENDCHAR
STARTCHAR char115
ENCODING 170
SWIDTH 720 0
DWIDTH 9 0
BBX 9 15 0 -3
BITMAP
0780
0880
1000
1800
1800
0E00
0300
0180
0180
0100
8600
7C00
1000
1000
6000
ENDCHAR
STARTCHAR char116
ENCODING 171
SWIDTH 720 0
DWIDTH 9 0
BBX 9 13 0 0
BITMAP
1400
0800
0000
FF80
8880
0800
1000
1000
1000
2000
2000
2000
F000
ENDCHAR
STARTCHAR char122
ENCODING 172
SWIDTH 880 0
DWIDTH 11 0
BBX 13 13 0 0
BITMAP
0060
0080
0000
0FF8
1030
0040
0180
0300
0600
0800
1800
6040
FFC0
ENDCHAR
STARTCHAR char173
ENCODING 173
SWIDTH 400 0
DWIDTH 5 0
BBX 4 1 1 3
BITMAP
F0
ENDCHAR
STARTCHAR char122
ENCODING 174
SWIDTH 880 0
DWIDTH 11 0
BBX 13 13 0 0
BITMAP
0140
0080
0000
0FF8
1030
0040
0180
0300
0600
0800
1800
6040
FFC0
ENDCHAR
STARTCHAR char122
ENCODING 175
SWIDTH 880 0
DWIDTH 11 0
BBX 13 13 0 0
BITMAP
0080
0080
0000
0FF8
1030
0040
0180
0300
0600
0800
1800
6040
FFC0
ENDCHAR
STARTCHAR char176
ENCODING 176
SWIDTH 0 0
DWIDTH 0 0
BBX 4 4 1 8
BITMAP
60
90
90
60
ENDCHAR
STARTCHAR char97
ENCODING 177
SWIDTH 640 0
DWIDTH 8 0
BBX 7 9 1 -2
BITMAP
1C
24
44
C8
88
DA
6C
08
06
ENDCHAR
STARTCHAR char178
ENCODING 178
SWIDTH 0 0
DWIDTH 0 0
BBX 3 3 2 -3
BITMAP
80
80
60
ENDCHAR
STARTCHAR char108
ENCODING 179
SWIDTH 560 0
DWIDTH 7 0
BBX 7 13 1 0
BITMAP
0C
18
08
08
10
16
18
60
A0
20
40
50
60
ENDCHAR
STARTCHAR char180
ENCODING 180
SWIDTH 0 0
DWIDTH 0 0
BBX 3 3 1 9
BITMAP
60
40
80
ENDCHAR
STARTCHAR char108
ENCODING 181
SWIDTH 560 0
DWIDTH 7 0
BBX 8 13 1 0
BITMAP
1A
33
11
12
20
20
20
40
40
40
80
A0
C0
ENDCHAR
STARTCHAR char115
ENCODING 182
SWIDTH 400 0
DWIDTH 5 0
BBX 6 10 0 0
BITMAP
0C
10
00
38
60
20
10
08
18
F0
ENDCHAR
STARTCHAR char183
ENCODING 183
SWIDTH 0 0
DWIDTH 0 0
BBX 3 2 2 10
BITMAP
A0
40
ENDCHAR
STARTCHAR char184
ENCODING 184
SWIDTH 0 0
DWIDTH 0 0
BBX 3 2 2 -2
BITMAP
20
C0
ENDCHAR
STARTCHAR char115
ENCODING 185
SWIDTH 400 0
DWIDTH 5 0
BBX 5 10 0 0
BITMAP
28
10
00
38
60
20
10
08
18
F0
ENDCHAR
STARTCHAR char115
ENCODING 186
SWIDTH 400 0
DWIDTH 5 0
BBX 5 9 0 -2
BITMAP
38
60
20
10
08
18
F0
20
C0
ENDCHAR
STARTCHAR char116
ENCODING 187
SWIDTH 560 0
DWIDTH 7 0
BBX 7 11 1 0
BITMAP
04
06
22
24
F8
40
40
40
80
A0
C0
ENDCHAR
STARTCHAR char122
ENCODING 188
SWIDTH 640 0
DWIDTH 8 0
BBX 11 13 1 -3
BITMAP
0600
0800
0000
3E00
4C00
0800
1000
2000
6000
D000
0800
0620
03C0
ENDCHAR
STARTCHAR char188
ENCODING 189
SWIDTH 0 0
DWIDTH 0 0
BBX 5 2 3 10
BITMAP
48
90
ENDCHAR
STARTCHAR char122
ENCODING 190
SWIDTH 640 0
DWIDTH 8 0
BBX 11 13 1 -3
BITMAP
1400
0800
0000
3E00
4C00
0800
1000
2000
6000
D000
0800
0620
03C0
ENDCHAR
STARTCHAR char122
ENCODING 191
SWIDTH 640 0
DWIDTH 8 0
BBX 11 13 1 -3
BITMAP
0800
0800
0000
3E00
4C00
0800
1000
2000
6000
D000
0800
0620
03C0
ENDCHAR
STARTCHAR char112
ENCODING 192
SWIDTH 800 0
DWIDTH 10 0
BBX 12 15 0 -2
BITMAP
0180
0200
0000
1F80
08C0
0840
1840
1080
1F00
3200
2100
2180
F080
0040
0030
ENDCHAR
STARTCHAR char32
ENCODING 193
SWIDTH 880 0
DWIDTH 11 0
BBX 11 13 0 0
BITMAP
0180
0200
0000
0600
0700
0900
0900
1180
1F80
1080
2040
20C0
F1E0
ENDCHAR
STARTCHAR char32
ENCODING 194
SWIDTH 880 0
DWIDTH 11 0
BBX 11 13 0 0
BITMAP
0200
0500
0000
0600
0700
0900
0900
1180
1F80
1080
2040
20C0
F1E0
ENDCHAR
STARTCHAR char32
ENCODING 195
SWIDTH 880 0
DWIDTH 11 0
BBX 11 13 0 0
BITMAP
0880
0700
0000
0600
0700
0900
0900
1180
1F80
1080
2040
20C0
F1E0
ENDCHAR
STARTCHAR char32
ENCODING 196
SWIDTH 880 0
DWIDTH 11 0
BBX 11 13 0 0
BITMAP
0900
0900
0000
0600
0700
0900
0900
1180
1F80
1080
2040
20C0
F1E0
ENDCHAR
STARTCHAR char108
ENCODING 197
SWIDTH 640 0
DWIDTH 8 0
BBX 8 13 0 0
BITMAP
0C
10
00
38
10
10
20
20
20
40
40
41
FE
ENDCHAR
STARTCHAR char34
ENCODING 198
SWIDTH 720 0
DWIDTH 9 0
BBX 8 13 1 0
BITMAP
03
04
00
0E
31
60
40
80
80
80
C0
61
1E
ENDCHAR
STARTCHAR char34
ENCODING 199
SWIDTH 800 0
DWIDTH 10 0
BBX 9 15 1 -3
BITMAP
0F00
3080
6000
4000
8000
8000
8000
8000
8000
C000
6080
1F00
0400
0400
1800
ENDCHAR
STARTCHAR char34
ENCODING 200
SWIDTH 720 0
DWIDTH 9 0
BBX 8 13 1 0
BITMAP
0A
04
00
0E
31
60
40
80
80
80
C0
61
1E
ENDCHAR
STARTCHAR char200
ENCODING 201
SWIDTH 640 0
DWIDTH 8 0
BBX 8 13 0 0
BITMAP
03
04
00
3E
11
10
20
3E
20
40
40
41
FE
ENDCHAR
STARTCHAR char36
ENCODING 202
SWIDTH 640 0
DWIDTH 8 0
BBX 9 15 0 -3
BITMAP
3F00
1080
1000
1000
2000
3F00
2000
2000
4000
4000
4100
FE00
1000
1000
0C00
ENDCHAR
STARTCHAR char200
ENCODING 203
SWIDTH 640 0
DWIDTH 8 0
BBX 8 13 0 0
BITMAP
09
09
00
3E
11
10
20
3E
20
40
40
41
FE
ENDCHAR
STARTCHAR char200
ENCODING 204
SWIDTH 640 0
DWIDTH 8 0
BBX 8 13 0 0
BITMAP
0A
04
00
3E
11
10
20
3E
20
40
40
41
FE
ENDCHAR
STARTCHAR char204
ENCODING 205
SWIDTH 560 0
DWIDTH 7 0
BBX 6 13 1 0
BITMAP
0C
10
00
38
10
10
20
20
20
40
40
40
E0
ENDCHAR
STARTCHAR char204
ENCODING 206
SWIDTH 560 0
DWIDTH 7 0
BBX 6 13 1 0
BITMAP
08
14
00
38
10
10
20
20
20
40
40
40
E0
ENDCHAR
STARTCHAR char35
ENCODING 207
SWIDTH 800 0
DWIDTH 10 0
BBX 10 13 0 0
BITMAP
0A00
0400
0000
3E00
1180
10C0
1040
2040
2040
2040
4180
4300
FC00
ENDCHAR
STARTCHAR char35
ENCODING 208
SWIDTH 880 0
DWIDTH 11 0
BBX 10 12 1 0
BITMAP
3E00
1180
1080
1040
2040
FC40
2040
2040
4080
4180
4300
FC00
ENDCHAR
STARTCHAR char110
ENCODING 209
SWIDTH 1120 0
DWIDTH 14 0
BBX 15 13 0 0
BITMAP
00C0
310E
1804
1C04
1604
2608
2308
2188
20C8
40D0
4070
4030
E010
ENDCHAR
STARTCHAR char110
ENCODING 210
SWIDTH 1120 0
DWIDTH 14 0
BBX 15 13 0 0
BITMAP
0140
308E
1804
1C04
1604
2608
2308
2188
20C8
40D0
4070
4030
E010
ENDCHAR
STARTCHAR char111
ENCODING 211
SWIDTH 960 0
DWIDTH 12 0
BBX 11 13 1 0
BITMAP
0180
0200
0000
0F00
30C0
6060
C020
8020
8020
8060
C0C0
6180
1E00
ENDCHAR
STARTCHAR char111
ENCODING 212
SWIDTH 960 0
DWIDTH 12 0
BBX 11 13 1 0
BITMAP
0400
0A00
0000
0F00
30C0
6060
C020
8020
8020
8060
C0C0
6180
1E00
ENDCHAR
STARTCHAR char111
ENCODING 213
SWIDTH 960 0
DWIDTH 12 0
BBX 11 13 1 0
BITMAP
0480
0900
0000
0F00
30C0
6060
C020
8020
8020
8060
C0C0
6180
1E00
ENDCHAR
STARTCHAR char111
ENCODING 214
SWIDTH 960 0
DWIDTH 12 0
BBX 11 13 1 0
BITMAP
0900
0900
0000
0F00
30C0
6060
C020
8020
8020
8060
C0C0
6180
1E00
ENDCHAR
STARTCHAR char215
ENCODING 215
SWIDTH 480 0
DWIDTH 6 0
BBX 5 5 1 1
BITMAP
88
50
20
50
88
ENDCHAR
STARTCHAR char112
ENCODING 216
SWIDTH 800 0
DWIDTH 10 0
BBX 12 15 0 -2
BITMAP
0500
0200
0000
1F80
08C0
0840
1840
1080
1F00
3200
2100
2180
F080
0040
0030
ENDCHAR
STARTCHAR char117
ENCODING 217
SWIDTH 880 0
DWIDTH 11 0
BBX 11 13 1 0
BITMAP
0E00
1100
0E00
E0E0
4040
4040
8080
8080
8080
8100
8200
C200
7C00
ENDCHAR
STARTCHAR char117
ENCODING 218
SWIDTH 880 0
DWIDTH 11 0
BBX 11 13 1 0
BITMAP
0300
0400
0000
E0E0
4040
4040
8080
8080
8080
8100
8200
C200
7C00
ENDCHAR
STARTCHAR char117
ENCODING 219
SWIDTH 880 0
DWIDTH 11 0
BBX 11 13 1 0
BITMAP
0480
0900
0000
E0E0
4040
4040
8080
8080
8080
8100
8200
C200
7C00
ENDCHAR
STARTCHAR char117
ENCODING 220
SWIDTH 880 0
DWIDTH 11 0
BBX 11 13 1 0
BITMAP
0900
0900
0000
E0E0
4040
4040
8080
8080
8080
8100
8200
C200
7C00
ENDCHAR
STARTCHAR char121
ENCODING 221
SWIDTH 880 0
DWIDTH 11 0
BBX 11 13 1 0
BITMAP
0300
0400
F1E0
2080
3100
1200
1400
1C00
0800
1800
1000
1000
7800
ENDCHAR
STARTCHAR char116
ENCODING 222
SWIDTH 720 0
DWIDTH 9 0
BBX 11 15 0 -3
BITMAP
FFE0
8420
0400
0400
0800
0800
0800
0800
1000
1000
1000
7800
2000
2000
C000
ENDCHAR
STARTCHAR char33
ENCODING 223
SWIDTH 720 0
DWIDTH 9 0
BBX 10 12 -1 0
BITMAP
0780
0CC0
0840
0840
1180
1300
1080
1040
2040
2040
2080
F300
ENDCHAR
STARTCHAR char114
ENCODING 224
SWIDTH 560 0
DWIDTH 7 0
BBX 7 10 1 0
BITMAP
06
08
00
6C
B4
20
40
40
40
80
ENDCHAR
STARTCHAR char97
ENCODING 225
SWIDTH 640 0
DWIDTH 8 0
BBX 7 10 1 0
BITMAP
04
08
00
1C
24
44
C8
88
DA
6C
ENDCHAR
STARTCHAR char97
ENCODING 226
SWIDTH 640 0
DWIDTH 8 0
BBX 7 10 1 0
BITMAP
08
14
00
1C
24
44
C8
88
DA
6C
ENDCHAR
STARTCHAR char97
ENCODING 227
SWIDTH 640 0
DWIDTH 8 0
BBX 7 10 1 0
BITMAP
22
1C
00
1C
24
44
C8
88
DA
6C
ENDCHAR
STARTCHAR char97
ENCODING 228
SWIDTH 640 0
DWIDTH 8 0
BBX 7 10 1 0
BITMAP
12
12
00
1C
24
44
C8
88
DA
6C
ENDCHAR
STARTCHAR char108
ENCODING 229
SWIDTH 400 0
DWIDTH 5 0
BBX 6 13 1 0
BITMAP
0C
10
00
30
60
20
20
40
40
40
80
A0
C0
ENDCHAR
STARTCHAR char99
ENCODING 230
SWIDTH 560 0
DWIDTH 7 0
BBX 6 10 1 0
BITMAP
0C
10
00
38
4C
40
80
80
C8
70
ENDCHAR
STARTCHAR char99
ENCODING 231
SWIDTH 560 0
DWIDTH 7 0
BBX 6 10 1 -3
BITMAP
38
4C
40
80
80
C8
70
20
20
C0
ENDCHAR
STARTCHAR char99
ENCODING 232
SWIDTH 560 0
DWIDTH 7 0
BBX 6 10 1 0
BITMAP
28
10
00
38
4C
40
80
80
C8
70
ENDCHAR
STARTCHAR char101
ENCODING 233
SWIDTH 560 0
DWIDTH 7 0
BBX 6 10 1 0
BITMAP
08
10
00
38
4C
48
F0
80
C8
70
ENDCHAR
STARTCHAR char101
ENCODING 234
SWIDTH 560 0
DWIDTH 7 0
BBX 6 9 1 -2
BITMAP
38
4C
48
F0
80
C8
70
40
30
ENDCHAR
STARTCHAR char101
ENCODING 235
SWIDTH 560 0
DWIDTH 7 0
BBX 6 10 1 0
BITMAP
24
24
00
38
4C
48
F0
80
C8
70
ENDCHAR
STARTCHAR char101
ENCODING 236
SWIDTH 560 0
DWIDTH 7 0
BBX 6 10 1 0
BITMAP
28
10
00
38
4C
48
F0
80
C8
70
ENDCHAR
STARTCHAR char105
ENCODING 237
SWIDTH 480 0
DWIDTH 6 0
BBX 5 10 1 0
BITMAP
08
10
00
30
E0
20
20
40
40
60
ENDCHAR
STARTCHAR char105
ENCODING 238
SWIDTH 480 0
DWIDTH 6 0
BBX 5 10 1 0
BITMAP
10
28
00
30
E0
20
20
40
40
60
ENDCHAR
STARTCHAR char100
ENCODING 239
SWIDTH 640 0
DWIDTH 8 0
BBX 8 13 1 0
BITMAP
14
09
03
02
02
02
1C
24
44
C8
88
DA
6C
ENDCHAR
STARTCHAR char100
ENCODING 240
SWIDTH 720 0
DWIDTH 9 0
BBX 9 13 1 0
BITMAP
0100
0100
0F80
0200
0200
0200
1C00
2400
4400
C800
8800
DA00
6C00
ENDCHAR
STARTCHAR char110
ENCODING 241
SWIDTH 640 0
DWIDTH 8 0
BBX 7 10 1 0
BITMAP
06
08
00
4C
D2
62
42
C4
86
8C
ENDCHAR
STARTCHAR char110
ENCODING 242
SWIDTH 640 0
DWIDTH 8 0
BBX 7 10 1 0
BITMAP
14
08
00
4C
D2
62
42
C4
86
8C
ENDCHAR
STARTCHAR char111
ENCODING 243
SWIDTH 560 0
DWIDTH 7 0
BBX 6 10 1 0
BITMAP
08
10
00
38
4C
84
84
84
C8
70
ENDCHAR
STARTCHAR char111
ENCODING 244
SWIDTH 560 0
DWIDTH 7 0
BBX 6 10 1 0
BITMAP
10
28
00
38
4C
84
84
84
C8
70
ENDCHAR
STARTCHAR char111
ENCODING 245
SWIDTH 560 0
DWIDTH 7 0
BBX 7 10 1 0
BITMAP
12
24
00
38
4C
84
84
84
C8
70
ENDCHAR
STARTCHAR char111
ENCODING 246
SWIDTH 560 0
DWIDTH 7 0
BBX 6 10 1 0
BITMAP
24
24
00
38
4C
84
84
84
C8
70
ENDCHAR
STARTCHAR char247
ENCODING 247
SWIDTH 640 0
DWIDTH 8 0
BBX 7 7 1 0
BITMAP
10
10
00
FE
00
10
10
ENDCHAR
STARTCHAR char114
ENCODING 248
SWIDTH 560 0
DWIDTH 7 0
BBX 6 10 1 0
BITMAP
14
08
00
6C
B4
20
40
40
40
80
ENDCHAR
STARTCHAR char117
ENCODING 249
SWIDTH 640 0
DWIDTH 8 0
BBX 7 11 1 0
BITMAP
0C
12
0C
00
22
C2
44
44
8C
96
64
ENDCHAR
STARTCHAR char117
ENCODING 250
SWIDTH 640 0
DWIDTH 8 0
BBX 7 10 1 0
BITMAP
04
08
00
22
C2
44
44
8C
96
64
ENDCHAR
STARTCHAR char117
ENCODING 251
SWIDTH 640 0
DWIDTH 8 0
BBX 8 10 1 0
BITMAP
09
12
00
22
C2
44
44
8C
96
64
ENDCHAR
STARTCHAR char117
ENCODING 252
SWIDTH 640 0
DWIDTH 8 0
BBX 7 10 1 0
BITMAP
12
12
00
22
C2
44
44
8C
96
64
ENDCHAR
STARTCHAR char121
ENCODING 253
SWIDTH 560 0
DWIDTH 7 0
BBX 8 14 -1 -4
BITMAP
06
08
00
63
11
19
0A
0E
04
0C
08
10
E0
C0
ENDCHAR
STARTCHAR char116
ENCODING 254
SWIDTH 480 0
DWIDTH 6 0
BBX 6 11 0 -2
BITMAP
10
10
7C
20
20
20
40
50
60
20
C0
ENDCHAR
STARTCHAR char121
ENCODING 255
SWIDTH 0 0
DWIDTH 0 0
BBX 1 2 3 10
BITMAP
80
80
ENDCHAR
ENDFONT
